<svg viewBox="0 0 8563 8452" fill="none" xmlns="http://www.w3.org/2000/svg">
<ellipse cx="4281.25" cy="4482.86" rx="3500" ry="3500.01" fill="#03026B"/>
<path d="M1671.14 1180.61C1671.14 842.067 1945.58 567.621 2284.13 567.621C2622.68 567.621 2897.12 842.068 2897.12 1180.62V4561.98H1671.14V1180.61Z" fill="white" stroke="#03026B" stroke-width="197.74"/>
<ellipse cx="4300.8" cy="4502.64" rx="2531.07" ry="2531.08" fill="white"/>
<ellipse cx="4281.17" cy="4482.92" rx="1838.98" ry="1838.99" fill="#03026B"/>
<ellipse cx="4281.25" cy="4482.86" rx="3500" ry="3500.01" fill="#03026B"/>
<path d="M1671.14 1180.61C1671.14 842.067 1945.58 567.621 2284.13 567.621C2622.68 567.621 2897.12 842.068 2897.12 1180.62V4561.98H1671.14V1180.61Z" fill="white" stroke="#03026B" stroke-width="197.74"/>
<ellipse cx="4300.8" cy="4502.64" rx="2531.07" ry="2531.08" fill="white"/>
<ellipse cx="4281.17" cy="4482.92" rx="1838.98" ry="1838.99" fill="#03026B"/>
<path d="M3834.15 5263.11C3786.63 5263.11 3749.85 5250.09 3723.79 5224.03C3699.26 5196.44 3687 5158.88 3687 5111.37V3754.82C3687 3705.77 3699.26 3668.99 3723.79 3644.46C3749.85 3618.4 3786.63 3605.37 3834.15 3605.37C3881.67 3605.37 3917.69 3618.4 3942.21 3644.46C3968.27 3668.99 3981.3 3705.77 3981.3 3754.82V4341.13H3985.9L4645.78 3678.95C4670.3 3654.42 4694.83 3636.03 4719.35 3623.77C4743.88 3611.51 4771.47 3605.37 4802.12 3605.37C4846.58 3605.37 4878 3616.87 4896.39 3639.86C4916.32 3662.85 4923.98 3689.68 4919.38 3720.34C4916.32 3750.99 4901.76 3779.35 4875.7 3805.41L4204.33 4469.88L4206.63 4336.53L4907.89 5049.29C4940.08 5079.94 4956.94 5112.13 4958.47 5145.85C4960 5179.58 4949.27 5207.93 4926.28 5230.93C4904.82 5252.38 4872.63 5263.11 4829.72 5263.11C4792.93 5263.11 4763.04 5255.45 4740.05 5240.12C4718.59 5224.79 4693.29 5202.57 4664.17 5173.44L3985.9 4495.17H3981.3V5111.37C3981.3 5158.88 3969.04 5196.44 3944.51 5224.03C3919.99 5250.09 3883.2 5263.11 3834.15 5263.11Z" fill="white"/>
</svg>
